<svg width="94" height="95" viewBox="0 0 94 95" fill="none" xmlns="http://www.w3.org/2000/svg">
<g filter="url(#filter0_d_240_1563)">
<path d="M45.1641 43.526C45.1021 43.4634 45.0282 43.4137 44.9469 43.3798C44.8655 43.3459 44.7783 43.3285 44.6902 43.3285C44.602 43.3285 44.5148 43.3459 44.4334 43.3798C44.3521 43.4137 44.2783 43.4634 44.2162 43.526L43.3511 44.391V46.2827L45.1641 44.4739C45.2267 44.4118 45.2764 44.338 45.3102 44.2566C45.3441 44.1753 45.3616 44.088 45.3616 43.9999C45.3616 43.9118 45.3441 43.8245 45.3102 43.7432C45.2764 43.6618 45.2267 43.588 45.1641 43.526Z" fill="black"/>
<path d="M40.8784 46.8637C40.8158 46.9258 40.7662 46.9996 40.7323 47.081C40.6984 47.1623 40.6809 47.2496 40.6809 47.3377C40.6809 47.4258 40.6984 47.5131 40.7323 47.5944C40.7662 47.6758 40.8158 47.7496 40.8784 47.8117L43.3511 50.2844V48.3927C42.7675 47.8104 42.7675 46.8649 43.3511 46.2827V44.391L40.8784 46.8637Z" fill="black"/>
<path d="M44.2162 51.1494C44.2783 51.212 44.3521 51.2617 44.4334 51.2956C44.5148 51.3295 44.602 51.3469 44.6902 51.3469C44.7783 51.3469 44.8655 51.3295 44.9469 51.2956C45.0282 51.2617 45.1021 51.212 45.1641 51.1494C45.2267 51.0874 45.2764 51.0135 45.3102 50.9322C45.3441 50.8509 45.3616 50.7636 45.3616 50.6755C45.3616 50.5874 45.3441 50.5001 45.3102 50.4187C45.2764 50.3374 45.2267 50.2636 45.1641 50.2015L43.3511 48.3927V50.2844L44.2162 51.1494Z" fill="black"/>
<path d="M52.5072 47.8117C52.5698 47.7496 52.6195 47.6758 52.6534 47.5944C52.6873 47.5131 52.7047 47.4258 52.7047 47.3377C52.7047 47.2496 52.6873 47.1623 52.6534 47.081C52.6195 46.9996 52.5698 46.9258 52.5072 46.8637L50.0267 44.3832V46.2748C50.6147 46.8614 50.6147 47.8139 50.0267 48.4006V50.2922L52.5072 47.8117Z" fill="black"/>
<path d="M49.1695 43.526C49.1072 43.4637 49.0333 43.4143 48.952 43.3806C48.8707 43.347 48.7835 43.3296 48.6955 43.3296C48.5177 43.3296 48.3472 43.4003 48.2215 43.526C48.1593 43.5882 48.1099 43.6621 48.0762 43.7434C48.0425 43.8247 48.0252 43.9119 48.0252 43.9999C48.0252 44.1777 48.0958 44.3482 48.2215 44.4739L50.0267 46.2748V44.3832L49.1695 43.526Z" fill="black"/>
<path fill-rule="evenodd" clip-rule="evenodd" d="M50.0267 63.6889C57.6443 62.1426 63.3778 55.4077 63.3778 47.3338C63.3778 39.2598 57.6443 32.525 50.0267 30.9787C48.9482 30.7598 47.832 30.6449 46.6889 30.6449C45.5458 30.6449 44.4296 30.7598 43.3511 30.9787C35.7335 32.525 30 39.2598 30 47.3338C30 55.4077 35.7335 62.1426 43.3511 63.6889C44.4296 63.9078 45.5458 64.0227 46.6889 64.0227C47.832 64.0227 48.9482 63.9078 50.0267 63.6889ZM45.1641 43.526C45.1021 43.4634 45.0282 43.4137 44.9469 43.3798C44.8655 43.3459 44.7783 43.3285 44.6902 43.3285C44.602 43.3285 44.5148 43.3459 44.4334 43.3798C44.3521 43.4137 44.2783 43.4634 44.2162 43.526L43.3511 44.391L40.8784 46.8637C40.8158 46.9258 40.7662 46.9996 40.7323 47.081C40.6984 47.1623 40.6809 47.2496 40.6809 47.3377C40.6809 47.4258 40.6984 47.5131 40.7323 47.5944C40.7662 47.6758 40.8158 47.7496 40.8784 47.8117L43.3511 50.2844L44.2162 51.1494C44.2783 51.212 44.3521 51.2617 44.4334 51.2956C44.5148 51.3295 44.602 51.3469 44.6902 51.3469C44.7783 51.3469 44.8655 51.3295 44.9469 51.2956C45.0282 51.2617 45.1021 51.212 45.1641 51.1494C45.2267 51.0874 45.2764 51.0135 45.3102 50.9322C45.3441 50.8509 45.3616 50.7636 45.3616 50.6755C45.3616 50.5874 45.3441 50.5001 45.3102 50.4187C45.2764 50.3374 45.2267 50.2636 45.1641 50.2015L43.3511 48.3927C42.7675 47.8104 42.7675 46.8649 43.3511 46.2827L45.1641 44.4739C45.2267 44.4118 45.2764 44.338 45.3102 44.2566C45.3441 44.1753 45.3616 44.088 45.3616 43.9999C45.3616 43.9118 45.3441 43.8245 45.3102 43.7432C45.2764 43.6618 45.2267 43.588 45.1641 43.526ZM50.0267 44.3832L52.5072 46.8637C52.5698 46.9258 52.6195 46.9996 52.6534 47.081C52.6873 47.1623 52.7047 47.2496 52.7047 47.3377C52.7047 47.4258 52.6873 47.5131 52.6534 47.5944C52.6195 47.6758 52.5698 47.7496 52.5072 47.8117L50.0267 50.2922L49.1695 51.1494C49.1074 51.212 49.0336 51.2617 48.9522 51.2956C48.8709 51.3295 48.7836 51.3469 48.6955 51.3469C48.6074 51.3469 48.5201 51.3295 48.4388 51.2956C48.3574 51.2617 48.2836 51.212 48.2215 51.1494C48.159 51.0874 48.1093 51.0135 48.0754 50.9322C48.0415 50.8509 48.0241 50.7636 48.0241 50.6755C48.0241 50.5874 48.0415 50.5001 48.0754 50.4187C48.1093 50.3374 48.159 50.2636 48.2215 50.2015L50.0267 48.4006C50.6147 47.8139 50.6147 46.8614 50.0267 46.2748L48.2215 44.4739C48.0958 44.3482 48.0252 44.1777 48.0252 43.9999C48.0252 43.9119 48.0425 43.8247 48.0762 43.7434C48.1099 43.6621 48.1593 43.5882 48.2215 43.526C48.3472 43.4003 48.5177 43.3296 48.6955 43.3296C48.7835 43.3296 48.8707 43.347 48.952 43.3806C49.0333 43.4143 49.1072 43.4637 49.1695 43.526L50.0267 44.3832Z" fill="#727270"/>
<path d="M48.2215 50.2015C48.159 50.2636 48.1093 50.3374 48.0754 50.4187C48.0415 50.5001 48.0241 50.5874 48.0241 50.6755C48.0241 50.7636 48.0415 50.8509 48.0754 50.9322C48.1093 51.0135 48.159 51.0874 48.2215 51.1494C48.2836 51.212 48.3574 51.2617 48.4388 51.2956C48.5201 51.3295 48.6074 51.3469 48.6955 51.3469C48.7836 51.3469 48.8709 51.3295 48.9522 51.2956C49.0336 51.2617 49.1074 51.212 49.1695 51.1494L50.0267 50.2922V48.4006L48.2215 50.2015Z" fill="black"/>
</g>
<defs>
<filter id="filter0_d_240_1563" x="0" y="0.64502" width="93.3778" height="93.3774" filterUnits="userSpaceOnUse" color-interpolation-filters="sRGB">
<feFlood flood-opacity="0" result="BackgroundImageFix"/>
<feColorMatrix in="SourceAlpha" type="matrix" values="0 0 0 0 0 0 0 0 0 0 0 0 0 0 0 0 0 0 127 0" result="hardAlpha"/>
<feOffset/>
<feGaussianBlur stdDeviation="15"/>
<feComposite in2="hardAlpha" operator="out"/>
<feColorMatrix type="matrix" values="0 0 0 0 0 0 0 0 0 0 0 0 0 0 0 0 0 0 0.25 0"/>
<feBlend mode="normal" in2="BackgroundImageFix" result="effect1_dropShadow_240_1563"/>
<feBlend mode="normal" in="SourceGraphic" in2="effect1_dropShadow_240_1563" result="shape"/>
</filter>
</defs>
</svg>
